<svg width="242" height="243" viewBox="0 0 242 243" xmlns="http://www.w3.org/2000/svg"><title>clock</title><g fill="none" fill-rule="evenodd"><path d="M109.236 25.012c0 1.728 1.152 2.988 2.916 2.988 1.728 0 2.88-1.26 2.88-2.988V4.888c0-1.152-.108-1.944-.288-2.196-.324-.864-1.188-1.692-2.52-1.692l-5.292 1.44c-1.656.468-2.376 1.692-2.376 2.88 0 1.584 1.26 2.664 2.736 2.664.648 0 1.296-.18 1.944-.432v17.46zm9.72-16.488c0 1.44.972 3.312 2.952 3.312 1.908 0 2.844-1.908 2.844-3.168 0-1.8 1.26-2.664 2.556-2.664 1.26 0 2.556.792 2.556 2.16 0 1.044-.36 2.16-1.08 3.096l-8.748 11.844c-.504.684-.792 1.44-.792 2.124 0 1.836 1.08 2.772 3.348 2.772h10.656c1.836 0 2.772-1.008 2.772-2.844 0-1.8-.864-2.772-2.736-2.772h-5.796c2.412-3.24 3.24-4.284 5.58-7.38 1.62-2.196 2.628-4.824 2.628-7.092 0-4.608-4.14-7.596-8.28-7.596-4.248 0-8.46 3.132-8.46 8.208z" fill="#3ABEC0"/><path d="M168.34 47.006c0 .864.576 1.494 1.458 1.494.864 0 1.44-.63 1.44-1.494V36.944c0-.576-.054-.972-.144-1.098a1.313 1.313 0 0 0-1.26-.846l-2.646.72c-.828.234-1.188.846-1.188 1.44 0 .792.63 1.332 1.368 1.332.324 0 .648-.09.972-.216v8.73z" fill="#B2D96C"/><path d="M201.476 73.76c.954 0 1.422-.954 1.422-1.584 0-.9.63-1.332 1.278-1.332.63 0 1.278.396 1.278 1.08 0 .522-.18 1.08-.54 1.548l-4.374 5.922c-.252.342-.396.72-.396 1.062 0 .918.54 1.386 1.674 1.386h5.328c.918 0 1.386-.504 1.386-1.422 0-.9-.432-1.386-1.368-1.386h-2.898c1.206-1.62 1.62-2.142 2.79-3.69.81-1.098 1.314-2.412 1.314-3.546 0-2.304-2.07-3.798-4.14-3.798-2.124 0-4.23 1.566-4.23 4.104 0 .72.486 1.656 1.476 1.656z" fill="#F0DE88"/><path d="M205.418 172.952c0 1.026.54 1.548 1.422 1.548.936 0 1.44-.522 1.44-1.548v-1.494c.882 0 1.332-.468 1.332-1.368 0-.954-.45-1.422-1.35-1.422v-5.688c0-1.242-.81-1.98-1.836-1.98-.81 0-1.44.396-1.908 1.152l-4.176 6.732.036-.054c-.27.36-.378.756-.378 1.098 0 .828.558 1.548 1.638 1.548h3.78v1.476zm0-7.182v2.898h-1.674l1.674-2.898z" fill="#3ABEC0"/><path d="M169.636 195c-.918 0-1.512.504-1.674 1.314-.828 4.248-.846 4.536-.846 4.626 0 1.08.63 1.386 1.44 1.386.54 0 1.008-.27 1.602-.27 1.224 0 1.818.972 1.818 1.908 0 .954-.702 1.89-1.782 1.89-.63 0-1.386-.324-1.746-.792-.288-.396-.738-.612-1.134-.612-.666 0-1.314.486-1.314 1.386 0 1.206 1.8 2.826 4.122 2.826 3.168 0 4.752-2.466 4.752-4.842 0-2.304-1.476-4.536-4.662-4.536.126-.738.162-.972.216-1.386h2.988c.954 0 1.404-.468 1.404-1.404 0-.81-.522-1.494-1.404-1.494h-3.78z" fill="#B2D96C"/><path d="M66.548 195c-1.062 0-1.548.486-1.548 1.44 0 .972.486 1.476 1.548 1.476h3.69a1071.787 1071.787 0 0 0-3.6 8.406c-.09.198-.162.468-.162.738 0 .684.36 1.422 1.35 1.422.666 0 1.188-.378 1.512-1.134l4.248-10.062c.108-.27.162-.522.162-.738a1.52 1.52 0 0 0-1.53-1.548h-5.67z" fill="#F28E36"/><path d="M31 170.558c0 2.574 1.782 4.464 4.41 4.464 2.448 0 4.338-2.034 4.338-4.428 0-1.296-.918-2.826-1.89-3.294.792-.504 1.386-1.566 1.386-2.538 0-2.214-1.638-3.762-3.852-3.762-2.142 0-3.942 1.62-3.942 3.762 0 1.062.54 2.142 1.368 2.646-1.044.594-1.818 1.89-1.818 3.15zm4.41-1.674c.792 0 1.386.738 1.386 1.656 0 .864-.54 1.602-1.386 1.602-.9 0-1.458-.738-1.458-1.638 0-.864.576-1.62 1.458-1.62zm-.054-2.79c-.666 0-1.026-.594-1.026-1.242 0-.684.522-1.044 1.044-1.044.468 0 .936.36.936 1.044 0 .63-.378 1.242-.954 1.242z" fill="#3ABEC0"/><path d="M33.34 80.402c0 .864.576 1.494 1.458 1.494.864 0 1.44-.63 1.44-1.494V70.34c0-.576-.054-.972-.144-1.098a1.313 1.313 0 0 0-1.26-.846l-2.646.72c-.828.234-1.188.846-1.188 1.44 0 .792.63 1.332 1.368 1.332.324 0 .648-.09.972-.216v8.73zM43.006 68c-3.528 0-4.752 4.158-4.752 7.092 0 3.024 1.17 7.002 4.788 7.002 3.474 0 4.716-4.158 4.716-7.038 0-2.952-1.152-7.056-4.68-7.056h-.072zm.036 11.25c-1.35 0-1.836-2.502-1.836-4.14 0-1.512.378-4.23 1.854-4.23 1.314 0 1.782 2.556 1.782 4.266 0 1.44-.468 4.104-1.8 4.104z" fill="#F0DE88"/><path d="M65.34 47.006c0 .864.576 1.494 1.458 1.494.864 0 1.44-.63 1.44-1.494V36.944c0-.576-.054-.972-.144-1.098a1.313 1.313 0 0 0-1.26-.846l-2.646.72c-.828.234-1.188.846-1.188 1.44 0 .792.63 1.332 1.368 1.332.324 0 .648-.09.972-.216v8.73zm6.876 0c0 .864.576 1.494 1.458 1.494.864 0 1.44-.63 1.44-1.494V36.944c0-.576-.054-.972-.144-1.098A1.313 1.313 0 0 0 73.71 35l-2.646.72c-.828.234-1.188.846-1.188 1.44 0 .792.63 1.332 1.368 1.332.324 0 .648-.09.972-.216v8.73z" fill="#F28E36"/><path d="M123.7 219.824c.612-.612.864-1.224.864-1.944 0-1.836-1.332-2.88-2.952-2.88-.756 0-1.512.36-2.16.864-4.32 4.032-8.604 9.828-8.604 16.344 0 5.256 3.024 10.188 8.856 10.188 5.472 0 8.964-4.644 8.964-9.72 0-3.96-2.268-7.92-6.876-7.92-.936 0-1.908 0-2.916.54 1.044-2.376 3.168-3.996 4.824-5.472zm-7.164 12.888c0-1.8.972-3.636 3.096-3.636 2.34 0 3.384 1.836 3.384 3.672 0 1.98-1.188 3.888-3.312 4.068-2.052-.072-3.168-2.088-3.168-4.104z" fill="#F0DE88"/><path d="M5.58 131.256c-.648.54-1.188 1.188-1.188 2.448 0 1.476 1.188 2.628 2.736 2.628.648 0 1.26-.108 1.98-.684 7.236-5.868 9.108-12.636 9.108-17.244 0-5.868-3.384-10.404-9-10.404C3.06 108 0 112.788 0 117.576c0 4.032 2.736 8.568 7.74 8.568 1.044 0 2.16-.18 3.384-.612-1.44 2.124-3.492 4.068-5.544 5.724zm3.492-17.568c2.448 0 3.528 2.196 3.528 4.104 0 2.7-1.584 3.924-3.492 3.924-1.764 0-3.348-1.404-3.348-3.96 0-1.836 1.008-4.068 3.312-4.068z" fill="#B2D96C"/><path d="M232.596 108.208c-4.464 0-7.704 3.312-7.704 6.768 0 1.692.936 2.592 2.988 2.592 1.764 0 2.196-1.512 2.232-1.944.036-.288.216-1.8 2.34-1.8 1.44 0 2.268.972 2.268 2.376 0 1.152-.612 2.808-1.584 3.096-.36.072-.9.072-1.044.072-2.016 0-3.06.576-3.06 2.376 0 1.728 1.008 2.448 3.06 2.448h1.188c1.62.252 2.376 2.052 2.376 3.492 0 1.944-1.512 2.952-3.024 2.952-1.116 0-2.088-.684-2.7-2.088-.504-1.152-1.692-1.8-2.7-1.8-1.404 0-2.664 1.008-2.664 2.88 0 1.08.36 2.232 1.044 3.204 1.368 1.872 3.888 3.564 7.056 3.564 5.436 0 8.748-4.212 8.748-8.352 0-2.592-1.296-5.148-4.14-6.696 2.196-1.404 3.168-3.492 3.168-5.616 0-3.744-3.096-7.524-7.848-7.524z" fill="#F28E36"/><circle fill="#B2D96C" cx="180" cy="22" r="5"/><circle fill="#F0DE88" cx="221" cy="64" r="5"/><path d="M223 181a5 5 0 1 0 0-10 5 5 0 0 0 0 10z" fill="#3ABEC0"/><path d="M180 226a5 5 0 1 0 0-10 5 5 0 0 0 0 10z" fill="#B2D96C"/><path d="M61 226a5 5 0 1 0 0-10 5 5 0 0 0 0 10z" fill="#F28E36"/><path d="M18 181a5 5 0 1 0 0-10 5 5 0 0 0 0 10z" fill="#3ABEC0"/><circle fill="#F0DE88" cx="20" cy="64" r="5"/><circle fill="#F28E36" cx="61" cy="22" r="5"/></g></svg>